<svg width="300" height="300" viewBox="0 0 300 300" fill="none" xmlns="http://www.w3.org/2000/svg">
<path d="M168.75 215.625H150V196.875C149.993 189.418 147.027 182.269 141.754 176.996C136.481 171.723 129.332 168.757 121.875 168.75H84.375C76.9181 168.757 69.7687 171.723 64.4958 176.996C59.223 182.269 56.2574 189.418 56.25 196.875V215.625H37.5V196.875C37.5149 184.448 42.4583 172.533 51.2458 163.746C60.0334 154.958 71.9475 150.015 84.375 150H121.875C134.302 150.015 146.217 154.958 155.004 163.746C163.792 172.533 168.735 184.448 168.75 196.875V215.625Z" fill="#FF6161"/>
<path d="M103.125 56.25C108.688 56.25 114.125 57.8995 118.75 60.9899C123.376 64.0803 126.98 68.4729 129.109 73.612C131.238 78.7512 131.795 84.4062 130.71 89.8619C129.624 95.3176 126.946 100.329 123.012 104.262C119.079 108.196 114.068 110.874 108.612 111.96C103.156 113.045 97.5012 112.488 92.3621 110.359C87.2229 108.23 82.8304 104.626 79.7399 100C76.6495 95.3753 75 89.9376 75 84.375C75 76.9158 77.9632 69.7621 83.2376 64.4876C88.5121 59.2132 95.6658 56.25 103.125 56.25ZM103.125 37.5C93.854 37.5 84.7912 40.2492 77.0827 45.3999C69.3741 50.5506 63.366 57.8714 59.8182 66.4367C56.2703 75.002 55.342 84.427 57.1507 93.5199C58.9594 102.613 63.4238 110.965 69.9794 117.521C76.535 124.076 84.8873 128.541 93.9802 130.349C103.073 132.158 112.498 131.23 121.063 127.682C129.629 124.134 136.949 118.126 142.1 110.417C147.251 102.709 150 93.646 150 84.375C150 71.943 145.061 60.0201 136.271 51.2294C127.48 42.4386 115.557 37.5 103.125 37.5Z" fill="#FF6161"/>
<path d="M18.75 243.75H281.25V262.5H18.75V243.75Z" fill="#FF6161"/>
<path d="M255.966 75C252.63 75.0003 249.329 75.6692 246.257 76.967C243.184 78.2649 240.403 80.1654 238.078 82.5562L234.375 86.3437L230.672 82.5469C228.346 80.1565 225.565 78.2565 222.493 76.9591C219.421 75.6617 216.119 74.9933 212.784 74.9933C209.449 74.9933 206.148 75.6617 203.076 76.9591C200.004 78.2565 197.222 80.1565 194.897 82.5469C190.154 87.4434 187.503 93.9927 187.503 100.809C187.503 107.626 190.154 114.175 194.897 119.072L234.375 159.375L273.844 119.081C278.586 114.185 281.238 107.635 281.238 100.819C281.238 94.0021 278.586 87.4528 273.844 82.5562C271.521 80.1676 268.743 78.2685 265.674 76.9707C262.605 75.6729 259.307 75.0028 255.975 75H255.966Z" fill="#FF6161"/>
</svg>
