<svg width="64" height="22" viewBox="0 0 64 22" fill="none" xmlns="http://www.w3.org/2000/svg">
<path fill-rule="evenodd" clip-rule="evenodd" d="M11.8686 21.0833C17.4375 21.0833 21.9519 16.5689 21.9519 11C21.9519 5.43112 17.4375 0.916656 11.8686 0.916656C6.29974 0.916656 1.78528 5.43112 1.78528 11C1.78528 16.5689 6.29974 21.0833 11.8686 21.0833ZM11.8686 14.6515C13.8853 14.6515 15.5201 13.0166 15.5201 11C15.5201 8.98329 13.8853 7.34845 11.8686 7.34845C9.85191 7.34845 8.21707 8.98329 8.21707 11C8.21707 13.0166 9.85191 14.6515 11.8686 14.6515Z" fill="white"/>
<path d="M30.8687 2.25H33.6187V19.75H30.8687V2.25Z" fill="white"/>
<path d="M39.5532 20C38.2366 20 37.2282 19.625 36.5282 18.875C35.8449 18.125 35.5032 17.0667 35.5032 15.7V6.3C35.5032 4.93333 35.8449 3.875 36.5282 3.125C37.2282 2.375 38.2366 2 39.5532 2C40.8699 2 41.8699 2.375 42.5532 3.125C43.2532 3.875 43.6032 4.93333 43.6032 6.3V8.15H41.0032V6.125C41.0032 5.04167 40.5449 4.5 39.6282 4.5C38.7116 4.5 38.2532 5.04167 38.2532 6.125V15.9C38.2532 16.9667 38.7116 17.5 39.6282 17.5C40.5449 17.5 41.0032 16.9667 41.0032 15.9V13.225H43.6032V15.7C43.6032 17.0667 43.2532 18.125 42.5532 18.875C41.8699 19.625 40.8699 20 39.5532 20Z" fill="white"/>
<path d="M49.2724 20C47.9224 20 46.889 19.6167 46.1724 18.85C45.4557 18.0833 45.0974 17 45.0974 15.6V6.4C45.0974 5 45.4557 3.91667 46.1724 3.15C46.889 2.38333 47.9224 2 49.2724 2C50.6224 2 51.6557 2.38333 52.3724 3.15C53.089 3.91667 53.4474 5 53.4474 6.4V15.6C53.4474 17 53.089 18.0833 52.3724 18.85C51.6557 19.6167 50.6224 20 49.2724 20ZM49.2724 17.5C50.2224 17.5 50.6974 16.925 50.6974 15.775V6.225C50.6974 5.075 50.2224 4.5 49.2724 4.5C48.3224 4.5 47.8474 5.075 47.8474 6.225V15.775C47.8474 16.925 48.3224 17.5 49.2724 17.5Z" fill="white"/>
<path d="M55.3071 2.25H58.7571L61.4321 12.725H61.4821V2.25H63.9321V19.75H61.1071L57.8071 6.975H57.7571V19.75H55.3071V2.25Z" fill="white"/>
</svg>
